<svg width="1280" height="720" xmlns="http://www.w3.org/2000/svg" xmlns:xlink="http://www.w3.org/1999/xlink" overflow="hidden"><defs><clipPath id="clip0"><rect x="0" y="0" width="1280" height="720"/></clipPath></defs><g clip-path="url(#clip0)"><rect x="0" y="0" width="1280" height="720" fill="#F2F2F2"/><rect x="27" y="53" width="1227" height="395" fill="#DEEBF7"/><rect x="53.5001" y="145.5" width="1178" height="93" stroke="#548235" stroke-width="0.666667" stroke-miterlimit="8" fill="#E2F0D9"/><path d="M78.5001 257C78.5001 241.26 91.2601 228.5 107 228.5L379 228.5C394.74 228.5 407.5 241.26 407.5 257L407.5 371C407.5 386.74 394.74 399.5 379 399.5L107 399.5C91.2601 399.5 78.5001 386.74 78.5001 371Z" stroke="#4472C4" stroke-width="0.666667" stroke-miterlimit="8" fill="#FFFFFF" fill-rule="evenodd"/><text fill="#2F5597" font-family="Calibri,Calibri_MSFontService,sans-serif" font-weight="400" font-size="24" transform="translate(207.595 292)">jupyter</text><rect x="191.5" y="372.5" width="120" height="44" stroke="#4472C4" stroke-width="0.666667" stroke-miterlimit="8" stroke-dasharray="0.666667 0.666667" fill="#FFFFFF"/><text fill="#2F5597" font-family="Calibri,Calibri_MSFontService,sans-serif" font-weight="400" font-size="19" transform="translate(231.889 400)">8888</text><rect x="191.5" y="424.5" width="120" height="43" stroke="#4472C4" stroke-width="0.666667" stroke-miterlimit="8" stroke-dasharray="0.666667 0.666667" fill="#FFFFFF"/><text fill="#2F5597" font-family="Calibri,Calibri_MSFontService,sans-serif" font-weight="400" font-size="19" transform="translate(231.888 451)">8001</text><path d="M0 0 0.000104987 8.02404" stroke="#4472C4" stroke-width="0.666667" stroke-miterlimit="8" fill="none" fill-rule="evenodd" transform="matrix(-1 0 0 1 251.5 416.5)"/><path d="M878.5 257C878.5 241.26 891.26 228.5 907 228.5L1180 228.5C1195.74 228.5 1208.5 241.26 1208.5 257L1208.5 371C1208.5 386.74 1195.74 399.5 1180 399.5L907 399.5C891.26 399.5 878.5 386.74 878.5 371Z" stroke="#4472C4" stroke-width="0.666667" stroke-miterlimit="8" fill="#FFFFFF" fill-rule="evenodd"/><text fill="#2F5597" font-family="Calibri,Calibri_MSFontService,sans-serif" font-weight="400" font-size="24" transform="translate(1010.92 292)">kibana</text><rect x="985.5" y="372.5" width="120" height="44" stroke="#4472C4" stroke-width="0.666667" stroke-miterlimit="8" stroke-dasharray="0.666667 0.666667" fill="#FFFFFF"/><text fill="#2F5597" font-family="Calibri,Calibri_MSFontService,sans-serif" font-weight="400" font-size="19" transform="translate(1026.17 400)">5601</text><rect x="985.5" y="424.5" width="120" height="43" stroke="#4472C4" stroke-width="0.666667" stroke-miterlimit="8" stroke-dasharray="0.666667 0.666667" fill="#FFFFFF"/><text fill="#2F5597" font-family="Calibri,Calibri_MSFontService,sans-serif" font-weight="400" font-size="19" transform="translate(1026.17 451)">8003</text><path d="M0 0 0.000104987 8.02404" stroke="#4472C4" stroke-width="0.666667" stroke-miterlimit="8" fill="none" fill-rule="evenodd" transform="matrix(-1 0 0 1 1045.5 416.5)"/><text fill="#2F5597" font-family="Calibri,Calibri_MSFontService,sans-serif" font-weight="700" font-size="24" transform="translate(155.067 94)">Docker application</text><path d="M156.5 597.833C156.5 590.47 195.675 584.5 244 584.5 292.325 584.5 331.5 590.47 331.5 597.833L331.5 651.167C331.5 658.531 292.325 664.5 244 664.5 195.675 664.5 156.5 658.531 156.5 651.167Z" fill="#FFFFFF" fill-rule="evenodd"/><path d="M331.5 597.833C331.5 605.197 292.325 611.167 244 611.167 195.675 611.167 156.5 605.197 156.5 597.833" stroke="#4472C4" stroke-width="0.666667" stroke-miterlimit="8" fill="none" fill-rule="evenodd"/><path d="M156.5 597.833C156.5 590.47 195.675 584.5 244 584.5 292.325 584.5 331.5 590.47 331.5 597.833L331.5 651.167C331.5 658.531 292.325 664.5 244 664.5 195.675 664.5 156.5 658.531 156.5 651.167Z" stroke="#4472C4" stroke-width="0.666667" stroke-miterlimit="8" fill="none" fill-rule="evenodd"/><text fill="#2F5597" font-family="Calibri,Calibri_MSFontService,sans-serif" font-weight="400" font-size="24" transform="translate(211.122 638)">esdata<tspan fill="#7F7F7F" font-weight="700" font-size="24" x="-58.0813" y="-106">Localhost (Ubuntu)</tspan><tspan fill="#000000" font-style="italic" font-size="16" x="562.563" y="-453">http://elasticsearch:9200</tspan></text><path d="M0.0738737-0.325044 1.4997-0.00099248 2.95913 0.861395 4.38273 2.34971 5.78288 4.32264 7.17371 6.85144 8.49561 9.80996 9.81396 13.2628 11.1301 17.2113 12.4459 21.5345 13.6983 26.3561 14.95 31.4882 16.1393 37.0593 18.4535 49.3182 20.5798 62.8266 22.5808 77.5216 24.3316 93.2785 25.8946 109.909 27.2701 127.289 28.3329 145.233 29.0832 163.678 29.7709 201.187 29.1457 238.76 28.3955 257.141 27.3952 275.084 26.1448 292.464 24.6442 309.095 22.9561 324.851 21.0802 339.545 19.079 353.116 16.8899 365.312 15.7634 370.883 14.5742 376.078 13.3849 380.835 12.1947 385.157 10.9406 389.107 9.68521 392.56 8.41769 395.538 6.73385 397.915 6.18991 397.529 7.85303 395.182 7.81828 395.244 9.06828 392.307 9.06174 392.324 10.3117 388.886 10.3073 388.899 11.5573 384.962 11.5536 384.974 12.7411 380.661 12.7391 380.669 13.9266 375.919 13.9251 375.926 15.1126 370.738 15.1108 370.746 16.2358 365.184 16.2344 365.191 18.4219 353.004 18.4202 353.014 20.4202 339.451 20.4193 339.458 22.2943 324.77 22.2936 324.777 23.9811 309.027 23.9805 309.033 25.4805 292.408 25.48 292.414 26.73 275.039 26.7297 275.044 27.7297 257.106 27.7294 257.111 28.4794 238.736 28.4792 238.744 29.1042 201.182 29.1042 201.194 28.4167 163.694 28.4169 163.701 27.6669 145.264 27.6672 145.27 26.6047 127.332 26.6052 127.339 25.2302 109.964 25.2306 109.969 23.6681 93.3437 23.6687 93.3493 21.9187 77.5993 21.9197 77.6075 19.9197 62.92 19.9207 62.9268 17.7957 49.4268 17.7975 49.4368 15.485 37.1868 15.4865 37.1946 14.299 31.6321 14.3012 31.6415 13.0512 26.5165 13.0524 26.5213 11.8024 21.7088 11.8061 21.7221 10.4936 17.4096 10.4963 17.4179 9.18377 13.4804 9.18859 13.4939 7.87609 10.0564 7.88316 10.0735 6.57066 7.13598 6.58293 7.16064 5.20793 4.66064 5.22816 4.69292 3.85316 2.75542 3.88412 2.79291 2.50912 1.35541 2.58042 1.41198 1.20542 0.599475 1.30113 0.637544-0.0738737 0.325044ZM10.2085 399.656 1.6875 402.375 4.625 393.927Z" transform="matrix(-1.83697e-16 -1 -1 1.83697e-16 1044.86 230.134)"/><path d="M243.175 230.061 243.499 228.635 244.361 227.175 245.85 225.752 247.821 224.353 250.287 222.961 253.247 221.639 256.636 220.321 260.523 219.005 264.846 217.689 269.543 216.436 274.675 215.185 280.184 213.995 292.318 211.681 305.701 209.555 320.271 207.554 335.841 205.803 352.346 204.24 369.539 202.864 387.296 201.802 405.49 201.051 442.687 200.364 479.885 200.989 498.079 201.739 515.834 202.739 533.027 203.99 549.533 205.49 565.102 207.178 579.671 209.054 593.117 211.056 605.188 213.245 610.696 214.371 615.829 215.56 620.523 216.75 624.845 217.94 628.734 219.194 632.123 220.45 635.102 221.717 637.425 223.395 637.035 223.935 634.742 222.28 634.807 222.316 631.87 221.066 631.884 221.072 628.509 219.822 628.523 219.827 624.648 218.577 624.661 218.581 620.349 217.393 620.356 217.395 615.668 216.208 615.675 216.209 610.55 215.022 610.558 215.023 605.058 213.898 605.065 213.9 593.003 211.712 593.013 211.714 579.576 209.714 579.582 209.715 565.02 207.84 565.027 207.841 549.464 206.153 549.47 206.154 532.97 204.654 532.976 204.654 515.788 203.404 515.794 203.405 498.044 202.405 498.049 202.405 479.861 201.655 479.869 201.655 442.682 201.03 442.694 201.03 405.506 201.718 405.514 201.717 387.326 202.467 387.332 202.467 369.582 203.53 369.589 203.529 352.402 204.904 352.406 204.904 335.906 206.466 335.912 206.466 320.35 208.216 320.358 208.215 305.795 210.215 305.802 210.214 292.427 212.339 292.437 212.337 280.312 214.649 280.32 214.648 274.82 215.835 274.829 215.833 269.704 217.083 269.711 217.082 265.023 218.332 265.035 218.328 260.722 219.641 260.732 219.638 256.857 220.95 256.871 220.945 253.496 222.258 253.511 222.251 250.573 223.564 250.601 223.55 248.164 224.925 248.193 224.906 246.255 226.281 246.293 226.25 244.855 227.625 244.912 227.554 244.099 228.929 244.138 228.833 243.825 230.208ZM639.17 219.921 641.875 228.447 633.432 225.496Z"/><text font-family="Calibri,Calibri_MSFontService,sans-serif" font-style="italic" font-weight="400" font-size="16" transform="translate(340.325 185)">Elasticsearch Python client</text><path d="M0 0 0.000104987 8.02404" stroke="#4472C4" stroke-width="0.666667" stroke-miterlimit="8" fill="none" fill-rule="evenodd" transform="matrix(-1 0 0 1 643.5 416.5)"/><path d="M477.5 257.001C477.5 241.26 490.26 228.5 506.001 228.5L777 228.5C792.74 228.5 805.5 241.26 805.5 257.001L805.5 370.999C805.5 386.74 792.74 399.5 777 399.5L506.001 399.5C490.26 399.5 477.5 386.74 477.5 370.999Z" stroke="#4472C4" stroke-width="0.666667" stroke-miterlimit="8" fill="#FFFFFF" fill-rule="evenodd"/><text fill="#2F5597" font-family="Calibri,Calibri_MSFontService,sans-serif" font-weight="400" font-size="24" transform="translate(578.203 292)">elasticsearch</text><rect x="583.5" y="372.5" width="120" height="44" stroke="#4472C4" stroke-width="0.666667" stroke-miterlimit="8" stroke-dasharray="0.666667 0.666667" fill="#FFFFFF"/><text fill="#2F5597" font-family="Calibri,Calibri_MSFontService,sans-serif" font-weight="400" font-size="19" transform="translate(623.937 400)">9200</text><rect x="583.5" y="424.5" width="120" height="43" stroke="#4472C4" stroke-width="0.666667" stroke-miterlimit="8" stroke-dasharray="0.666667 0.666667" fill="#FFFFFF"/><text fill="#2F5597" font-family="Calibri,Calibri_MSFontService,sans-serif" font-weight="400" font-size="19" transform="translate(623.937 451)">8002<tspan fill="#000000" font-style="italic" font-size="16" x="-75.4385" y="-110">/usr/share/elasticsearch/data</tspan><tspan fill="#548235" font-size="24" x="-6.59546" y="-260">esnet</tspan><tspan fill="#000000" font-style="italic" font-size="16" x="-476.567" y="114">localhost</tspan><tspan fill="#000000" font-style="italic" font-size="16" x="-418.68" y="114">-</tspan><tspan fill="#000000" font-style="italic" font-size="16" x="-413.847" y="114">path/to/docker</tspan><tspan fill="#000000" font-style="italic" font-size="16" x="-315.407" y="114">-</tspan><tspan fill="#000000" font-style="italic" font-size="16" x="-310.573" y="114">elastic</tspan><tspan fill="#000000" font-style="italic" font-size="16" x="-269.42" y="114">-</tspan><tspan fill="#000000" font-style="italic" font-size="16" x="-264.587" y="114">demo</tspan><tspan fill="#000000" font-style="italic" font-size="16" x="-507.059" y="-110">/home/jovyan/work/docker</tspan><tspan fill="#000000" font-style="italic" font-size="16" x="-327.573" y="-110">-</tspan><tspan fill="#000000" font-style="italic" font-size="16" x="-322.739" y="-110">elastic</tspan><tspan fill="#000000" font-style="italic" font-size="16" x="-281.586" y="-110">-</tspan><tspan fill="#000000" font-style="italic" font-size="16" x="-276.753" y="-110">demo</tspan></text><path d="M136.788 560.893 83.1666 560.893 83.1666 336.167 100.833 336.167 100.833 336.833 83.5 336.833 83.8333 336.5 83.8333 560.56 83.5 560.227 136.788 560.227ZM99.5 332.5 107.5 336.5 99.5 340.5Z"/><rect x="24.5001" y="461.5" width="119" height="30" stroke="#D9D9D9" stroke-linejoin="round" stroke-miterlimit="10" fill="#FFFFFF"/><text font-family="Calibri,Calibri_MSFontService,sans-serif" font-weight="400" font-size="16" transform="translate(45.8852 481)">bind mount</text><path d="M0-0.333333 103.158-0.333333 103.158 287.566 102.825 287.233 198.983 287.233 198.983 287.899 102.492 287.899 102.492 0 102.825 0.333333 0 0.333333ZM197.65 283.566 205.65 287.566 197.65 291.566Z" transform="matrix(1 0 0 -1 331.5 624.066)"/><rect x="385.5" y="461.5" width="105" height="30" stroke="#D9D9D9" stroke-linejoin="round" stroke-miterlimit="10" fill="#FFFFFF"/><text font-family="Calibri,Calibri_MSFontService,sans-serif" font-weight="400" font-size="16" transform="translate(413.428 481)">volume</text></g></svg>